<?xml version="1.0" standalone="no"?>
<!DOCTYPE svg PUBLIC "-//W3C//DTD SVG 20010904//EN"
 "http://www.w3.org/TR/2001/REC-SVG-20010904/DTD/svg10.dtd">
<svg version="1.0" xmlns="http://www.w3.org/2000/svg"
 width="800.000000pt" height="800.000000pt" viewBox="0 0 800.000000 800.000000"
 preserveAspectRatio="xMidYMid meet">
<metadata>
Created by potrace 1.14, written by Peter Selinger 2001-2017
</metadata>
<g transform="translate(0.000000,800.000000) scale(0.100000,-0.100000)"
fill="#000000" stroke="none">
<path d="M3853 6755 c-295 -427 -442 -641 -463 -670 -12 -16 -108 -155 -213
-307 -206 -298 -350 -506 -434 -627 -29 -42 -91 -132 -139 -201 -47 -69 -104
-152 -128 -185 -23 -33 -78 -112 -122 -176 -88 -128 -269 -390 -474 -684 -74
-107 -221 -320 -327 -472 -105 -153 -215 -312 -244 -353 -29 -41 -75 -109
-104 -150 -72 -105 -149 -217 -186 -270 -18 -25 -61 -88 -97 -140 -36 -52
-161 -232 -277 -400 -280 -404 -308 -445 -405 -585 -136 -196 -166 -239 -173
-251 -5 -9 993 -12 3933 -12 2167 0 3940 2 3940 4 0 5 -241 356 -380 554 -25
35 -885 1280 -916 1325 -45 65 -170 245 -218 314 -21 30 -62 89 -91 130 -59
86 -356 517 -522 756 -61 88 -176 253 -255 368 -116 168 -293 423 -360 520 -7
9 -49 70 -93 135 -45 64 -101 146 -126 182 -67 96 -405 583 -464 670 -29 41
-83 120 -121 175 -39 55 -101 145 -139 200 -38 55 -110 160 -161 233 l-92 132
-149 -215z"/>
</g>
</svg>
